<?xml version="1.0" encoding="utf-8"?>
<svg xmlns="http://www.w3.org/2000/svg" xmlns:xlink="http://www.w3.org/1999/xlink" width="1047" height="315" viewBox="0 0 1047 315">
  <style>
    path:not([fill]) { fill: black; }
    @media (prefers-color-scheme: dark) {
      path:not([fill]) { fill: white; }
    }
  </style>
  <path fill="#02ACF2" fill-opacity="0.96862745" transform="scale(0.999696 1)" d="M80.1398 40.3573C90.2901 39.6509 98.811 43.291 107.761 47.5163C113.516 50.2329 119.079 53.1662 124.712 56.122C128.42 58.0675 132.199 60.2258 136.146 61.636C142.42 63.8775 149.589 64.818 156.23 64.8102C163.293 64.8018 170.914 63.6123 177.528 61.0931C181.499 59.5805 185.262 57.2918 188.992 55.2675C202.003 48.2074 215.854 39.9998 231.14 40.3445C235.993 40.454 240.632 41.2623 245.255 42.7197C251.892 44.812 276.046 56.3627 280.339 60.9176C282.338 63.0385 283.504 65.5062 283.389 68.4663C283.266 71.6412 281.49 74.7306 279.182 76.8392C275.212 80.4653 269.695 83.1229 265.078 85.9187C252.816 93.3425 243.317 101.125 228.189 100.449C224.436 100.1 220.71 99.4707 217.155 98.1713C212.655 96.5266 208.608 93.9068 204.55 91.4107C192.86 84.22 180.115 74.7534 166.536 72.373C161.703 71.5258 156.527 71.4372 151.643 71.7938C146.349 72.1803 141.266 72.9887 136.258 74.8095C130.526 76.8941 125.071 80.5331 119.927 83.7449L106.77 91.8856C99.8787 96.1457 93.5108 99.6879 85.2815 100.4C69.4895 101.766 60.1803 94.1781 47.5233 86.3831C42.9001 83.5359 37.6784 80.9211 33.5384 77.4039C31.013 75.2584 28.7941 72.114 28.5361 68.7174C28.3199 65.8696 29.7337 63.2287 31.582 61.1587C32.9832 59.5894 34.6709 58.3159 36.4426 57.1958C40.4723 54.6483 45.0012 52.6694 49.2693 50.5461C54.8643 47.7628 60.5405 44.5176 66.5136 42.64C71.0695 41.2079 75.387 40.6247 80.1398 40.3573Z"/>
  <path fill="#02ACF2" fill-opacity="0.87843138" transform="scale(0.999696 1)" d="M24.5038 84.3057C26.9032 84.1057 29.2012 84.6574 31.4296 85.5319C37.0748 87.7473 42.4976 91.5612 47.6795 94.6801C53.2875 98.0554 59.2674 101.14 64.3294 105.318C68.5209 108.777 71.7138 112.636 74.2456 117.447C79.0487 126.573 79.0932 132.791 79.0514 142.914L78.9825 160.636C78.9687 164.774 78.8151 169.028 79.2442 173.144C79.9535 179.949 82.9891 187.263 86.2586 193.209C93.5497 206.468 98.5543 210.801 111.364 218.528L126.105 227.436C130.216 229.903 134.467 232.306 138.174 235.362C146.093 241.89 151.405 252.497 152.331 262.68C152.87 268.601 152.445 274.689 152.401 280.632C152.359 286.33 152.865 292.492 151.914 298.109C151.482 300.656 150.579 303.389 148.885 305.388C147.583 306.943 145.711 307.909 143.69 308.071C141.442 308.3 139.587 308.209 137.427 307.479C131.741 305.557 125.764 301.13 120.637 298.004C116.116 295.247 111.404 292.665 106.991 289.748C98.1525 283.905 91.5252 274.179 89.6773 263.692C88.8025 258.727 89.0009 253.627 89.0224 248.608L89.1067 232.874C89.1538 227.747 89.3399 222.333 88.2916 217.299C86.7518 209.905 84.0275 203.075 80.1765 196.591C73.0571 184.603 66.5452 179.94 54.8593 173.031C48.0088 168.981 40.9809 165.058 34.3352 160.683C24.7349 154.362 18.6697 145.396 16.3725 134.102C14.7604 126.176 15.5352 113.696 15.7022 105.304C15.7751 101.64 15.5592 97.8631 16.0861 94.2316C16.3875 92.1543 16.9674 90.08 18.1534 88.3242C19.678 86.067 21.8681 84.8227 24.5038 84.3057Z"/>
  <path fill="#0078C9" fill-opacity="0.96862745" transform="scale(0.999696 1)" d="M209.149 128.832C211.427 128.544 213.852 128.767 215.865 129.953C218.156 131.303 219.451 133.837 220.085 136.339C221.293 141.107 220.713 146.686 220.672 151.584C220.624 157.228 220.626 162.881 220.497 168.524C220.399 172.804 219.975 176.892 221.078 181.102C222.115 185.058 224.067 188.975 227.748 191.062C231.398 193.131 235.899 192.849 239.764 191.572C244.483 190.013 248.672 186.9 252.864 184.298L268.583 174.563C272.008 172.46 275.721 169.985 279.655 168.981C282.033 168.373 284.632 168.499 286.766 169.808C289.103 171.24 290.52 173.915 291.147 176.516C292.357 181.536 291.534 212.301 290.441 217.553C289.404 222.543 287.333 227.577 284.697 231.932C282.871 235.014 280.589 237.803 277.929 240.204C272.271 245.226 265.383 248.993 258.989 252.997C254.656 255.71 250.286 258.792 245.703 261.059C244.189 261.808 242.704 262.315 241.064 262.716C238.786 262.93 236.394 263.022 234.331 261.874C231.684 260.401 230.405 257.33 229.817 254.5C229.075 250.937 229.292 247.239 229.349 243.626L229.591 228.911C229.738 222.516 230.561 215.558 228.747 209.339C227.701 205.749 225.274 202.218 221.921 200.434C219.362 199.072 216.06 198.654 213.226 199.221C206.103 200.646 189.109 212.434 182.071 216.839C178.658 218.975 175.183 221.413 171.273 222.541C168.629 223.304 165.851 223.296 163.398 221.926C161.085 220.634 160.092 218.285 159.402 215.838C157.868 210.391 158.355 186.421 158.91 179.761C159.066 177.89 159.394 176.006 159.771 174.168C160.727 169.567 162.418 165.149 164.778 161.085C167.128 156.985 169.983 153.538 173.535 150.414C178.317 146.209 184.107 143.131 189.484 139.748C194.207 136.777 198.933 133.465 203.896 130.907C205.596 130.031 207.299 129.334 209.149 128.832Z"/>
  <path fill="#02ACF2" fill-opacity="0.87843138" transform="scale(0.999696 1)" d="M152.413 81.3514L152.865 81.3192C158.157 80.9586 163.39 81.4431 168.445 83.1079C175.638 85.4766 183.12 90.9119 189.609 94.8696C194.674 97.9592 200.465 100.917 204.901 104.868C207.154 106.874 208.732 109.989 208.863 113.015C209.002 116.186 207.562 119.228 205.428 121.512C202.353 124.801 177.062 140.204 171.793 142.537C168.206 144.124 164.131 145.456 160.188 145.59C144.445 147.135 136.173 140.606 123.491 132.772C118.479 129.676 113.007 126.744 108.376 123.098C105.479 120.817 103.481 118.243 103.069 114.466C102.748 111.52 103.675 108.738 105.541 106.461C106.67 105.083 108.077 103.936 109.519 102.899C113.914 99.7381 118.819 97.0681 123.442 94.243C129.318 90.653 135.286 86.4638 141.657 83.8266C145.113 82.3965 148.71 81.7054 152.413 81.3514Z"/>
  <path fill="#02ACF2" fill-opacity="0.96862745" transform="scale(0.999696 1)" d="M99.0945 128.087C101.494 128.173 103.865 128.982 106.038 129.964C110.623 132.036 114.799 134.972 119.128 137.52C125.242 141.118 131.909 144.434 137.5 148.786C144.826 154.489 151.048 164.216 152.189 173.541C153.133 181.246 152.653 189.163 152.619 196.916C152.596 202.319 153.068 208.308 152.13 213.62C151.759 215.719 151.013 217.651 149.666 219.327C147.908 221.514 145.63 222.526 142.89 222.822C140.532 222.72 137.999 221.951 135.859 221.009C131.246 218.977 126.938 215.965 122.605 213.4C117.012 210.089 110.92 206.989 105.764 203.045C97.1465 196.452 91.0793 186.639 89.6649 175.794C88.6999 168.396 89.1464 160.717 89.1746 153.261C89.1943 148.065 88.7543 142.349 89.7132 137.235C90.0589 135.286 90.8747 133.452 92.0898 131.89C93.9032 129.588 96.2242 128.425 99.0945 128.087Z"/>
  <path fill="#0078C9" fill-opacity="0.96862745" transform="scale(0.999696 1)" d="M24.081 170.059C26.4283 170.055 28.7561 170.485 30.9475 171.326C34.8432 172.811 38.4976 175.313 42.0838 177.423L57.5704 186.543C68.2129 192.945 74.8586 201.863 77.8157 213.945C79.1063 219.219 79.166 247.378 78.4309 253.279C78.1308 255.688 77.6107 258.121 76.3176 260.204C74.6763 262.849 72.5323 263.782 69.5798 264.444C67.4442 264.754 65.4042 264.192 63.4206 263.419C58.6194 261.548 54.2599 258.51 49.8589 255.867C45.3121 253.136 40.6961 250.516 36.1681 247.755C26.3301 241.756 19.0551 233.021 16.3328 221.598C14.4648 213.76 15.2389 204.809 15.2419 196.771C15.2439 191.473 14.9205 185.942 15.6422 180.694C15.9505 178.452 16.4647 176.33 17.6991 174.401C19.2419 171.99 21.3151 170.649 24.081 170.059Z"/>
  <path fill="#02ACF2" fill-opacity="0.96862745" transform="scale(0.999696 1)" d="M208.925 213.338C210.994 213.422 212.822 213.564 214.663 214.629C216.751 215.837 218.53 218.379 219.126 220.697C220.297 225.24 219.867 256.578 218.949 261.449C217.997 266.501 215.926 271.419 213.3 275.818C211.149 279.42 208.581 282.939 205.43 285.735C200.637 289.987 194.393 293.133 188.968 296.523C184.001 299.625 179.099 303.117 173.894 305.79C172.139 306.691 170.379 307.314 168.469 307.795C166.23 307.99 164.277 307.966 162.318 306.713C159.778 305.088 158.521 302.423 157.878 299.576C156.598 293.908 157.188 264.95 158.452 258.888C159.48 253.959 161.511 248.886 164.202 244.629C166.746 240.605 170.146 237.108 173.798 234.078C178.494 230.182 184.006 227.213 189.163 223.976C193.602 221.189 198.015 218.046 202.678 215.667C204.728 214.621 206.675 213.842 208.925 213.338Z"/>
  <path fill="#02ACF2" fill-opacity="0.87843138" transform="scale(0.999696 1)" d="M278.539 84.6951C281.487 83.8403 284.993 83.4349 287.786 85.0038C290.023 86.2595 291.363 88.6822 292.011 91.0913C293.357 96.0958 292.531 102.365 292.521 107.543C292.507 115.487 293.23 124.911 291.702 132.675C290.725 137.398 288.959 141.923 286.477 146.059C284.141 150.022 281.179 153.58 277.706 156.597C272.247 161.335 265.342 164.88 259.204 168.689C255.322 171.099 251.506 173.903 247.461 176.019C246.236 176.66 244.895 177.175 243.56 177.53C240.87 178.245 237.768 178.409 235.303 176.915C232.877 175.445 231.488 172.65 230.846 169.973C230.453 168.337 230.309 166.603 230.249 164.924C230.017 158.367 230.398 151.664 230.525 145.097C230.6 141.217 230.294 136.46 230.947 132.7C231.519 133.85 231.274 136.081 231.416 137.414C231.459 131.35 233.121 122.83 236.315 117.617C237.552 115.598 239.489 113.683 240.471 111.588C240.566 111.384 240.648 111.144 240.781 110.963C241.008 110.652 241.328 110.478 241.69 110.397C241.882 111.371 241.358 112.275 240.992 113.162C242.129 112.403 245.034 107.29 246.321 105.792C247.079 104.91 248.067 104.21 248.997 103.52C252.98 100.567 257.525 98.1403 261.762 95.5515C266.536 92.6348 271.22 89.5128 276.006 86.6351C276.892 86.102 279.715 85.4466 280.181 84.7692L278.539 84.6951Z"/>
  <path fill="#0078C9" fill-opacity="0.96862745" transform="scale(0.999696 1)" d="M154.375 2.60632C158.631 2.38654 163.302 2.84801 167.381 4.12755C174.734 6.43411 181.336 10.909 188.12 14.4665C194.05 17.5758 200.904 20.037 206.009 24.4329C207.706 25.895 208.637 27.1562 208.785 29.4348C208.931 31.6692 208.2 33.526 206.724 35.1905C205.556 36.5062 204.104 37.5016 202.6 38.393C198.657 40.7306 194.268 42.5123 190.145 44.5241C183.333 47.849 176.344 51.7846 169.102 54.0605C165.363 55.2358 161.542 55.693 157.64 55.8865C153.278 55.9301 148.723 55.7389 144.492 54.589C138.825 53.0486 110.791 39.9874 106.346 36.3598C104.678 34.9996 103.235 33.1416 103.049 30.9285C102.86 28.6851 103.729 26.473 105.199 24.8002C106.39 23.4436 108.405 22.3094 109.968 21.4027C114.519 18.7622 119.437 16.6611 124.085 14.1773C129.929 11.0548 135.73 7.11188 141.961 4.85413C145.933 3.41482 150.189 2.90688 154.375 2.60632Z"/>
  <path fill="#02ACF2" fill-opacity="0.96470588" transform="scale(0.999696 1)" d="M278.539 84.6951L280.181 84.7692C279.715 85.4466 276.892 86.102 276.006 86.6351C271.22 89.5128 266.536 92.6348 261.762 95.5515C257.525 98.1403 252.98 100.567 248.997 103.52C248.067 104.21 247.079 104.91 246.321 105.792C245.034 107.29 242.129 112.403 240.992 113.162C241.358 112.275 241.882 111.371 241.69 110.397C241.328 110.478 241.008 110.652 240.781 110.963C240.648 111.144 240.566 111.384 240.471 111.588C239.489 113.683 237.552 115.598 236.315 117.617C233.121 122.83 231.459 131.35 231.416 137.414C231.274 136.081 231.519 133.85 230.947 132.7C231.28 129.307 232.372 125.528 233.555 122.335C239.09 107.407 250.392 101.684 263.048 93.8315C268.085 90.7064 273.148 87.1652 278.539 84.6951Z"/>
  <path transform="scale(0.999696 1)" d="M360.707 164.709Q352.566 164.709 345.48 160.655Q338.427 156.568 334.076 148.855Q329.726 141.109 329.726 130.167Q329.726 119.192 334.076 111.447Q338.427 103.668 345.48 99.5815Q352.566 95.4946 360.707 95.4946Q368.881 95.4946 375.901 99.5815Q382.954 103.668 387.305 111.447Q391.689 119.192 391.689 130.167Q391.689 141.109 387.305 148.855Q382.954 156.568 375.901 160.655Q368.881 164.709 360.707 164.709ZM360.707 153.734Q365.981 153.734 369.87 150.799Q373.759 147.867 375.835 142.561Q377.945 137.254 377.945 130.167Q377.945 123.114 375.835 117.775Q373.759 112.436 369.87 109.469Q365.981 106.503 360.707 106.503Q355.467 106.503 351.611 109.469Q347.754 112.436 345.612 117.775Q343.503 123.114 343.503 130.167Q343.503 137.254 345.612 142.561Q347.754 147.867 351.611 150.799Q355.467 153.734 360.707 153.734ZM408.083 190.054L408.083 97.1096L419.058 97.1096L420.113 104.426L420.508 104.426Q424.859 100.735 430.133 98.1313Q435.406 95.4946 440.976 95.4946Q449.348 95.4946 455.148 99.6475Q460.949 103.8 463.981 111.348Q467.014 118.896 467.014 129.113Q467.014 140.352 462.993 148.327Q458.972 156.271 452.512 160.49Q446.085 164.709 438.669 164.709Q434.252 164.709 429.77 162.764Q425.32 160.786 421.036 157.26L421.431 168.499L421.431 190.054L408.083 190.054ZM436.032 153.569Q440.976 153.569 444.865 150.766Q448.754 147.932 450.996 142.495Q453.237 137.023 453.237 129.212Q453.237 122.29 451.589 117.248Q449.974 112.172 446.48 109.403Q443.019 106.635 437.416 106.635Q433.593 106.635 429.704 108.645Q425.815 110.656 421.431 114.809L421.431 147.438Q425.485 150.766 429.276 152.185Q433.066 153.569 436.032 153.569ZM511.102 164.709Q502.005 164.709 494.655 160.622Q487.338 156.502 483.087 148.79Q478.835 141.044 478.835 130.102Q478.835 119.357 483.185 111.612Q487.569 103.866 494.457 99.7134Q501.346 95.5276 509.058 95.5276Q517.792 95.5276 523.725 99.4827Q529.691 103.405 532.723 110.392Q535.755 117.379 535.755 126.64Q535.755 128.585 535.59 130.432Q535.425 132.277 535.03 134.023L488.657 134.023L488.657 123.675L523.824 123.675Q523.824 115.336 520.132 110.788Q516.474 106.206 509.256 106.206Q505.136 106.206 501.181 108.48Q497.259 110.722 494.688 115.929Q492.117 121.137 492.117 130.036Q492.117 138.111 494.919 143.417Q497.753 148.691 502.466 151.327Q507.18 153.931 512.684 153.931Q517.232 153.931 521.187 152.678Q525.142 151.394 528.537 149.185L533.283 157.854Q528.867 160.919 523.231 162.829Q517.628 164.709 511.102 164.709ZM551.183 163.094L551.183 97.1096L562.158 97.1096L563.213 106.338L563.608 106.338Q568.223 101.79 573.496 98.6587Q578.77 95.4946 585.493 95.4946Q596.106 95.4946 600.918 102.218Q605.73 108.942 605.73 121.499L605.73 163.094L592.382 163.094L592.382 123.246Q592.382 114.545 589.712 110.788Q587.042 107.03 581.044 107.03Q576.331 107.03 572.705 109.37Q569.113 111.677 564.531 116.193L564.531 163.094L551.183 163.094ZM647.426 164.709Q640.472 164.709 635.099 163.061Q629.76 161.413 625.706 158.676Q621.685 155.942 618.62 152.844L624.981 144.241Q628.903 147.965 633.88 150.866Q638.857 153.734 645.877 153.734Q650.887 153.734 654.908 151.557Q658.929 149.35 661.236 145.329Q663.543 141.275 663.543 135.704Q663.543 127.398 658.863 122.851Q654.216 118.269 646.536 118.269Q642.317 118.269 639.252 119.489Q636.22 120.708 632.298 123.279L625.64 119.027L628.343 77.1035L672.87 77.1035L672.87 88.4744L640.01 88.4744L637.934 111.579Q640.867 110.095 643.735 109.271Q646.602 108.414 650.228 108.414Q657.577 108.414 663.675 111.315Q669.772 114.182 673.398 120.115Q677.056 126.048 677.056 135.31Q677.056 144.669 672.87 151.262Q668.718 157.854 661.928 161.281Q655.171 164.709 647.426 164.709ZM731.125 164.709Q719.325 164.709 710.097 159.37Q700.868 154.03 695.595 143.812Q690.322 133.562 690.322 119.06Q690.322 108.283 693.42 99.7793Q696.551 91.2759 702.121 85.2773Q707.724 79.2458 715.238 76.1477Q722.786 73.0166 731.553 73.0166Q740.848 73.0166 747.275 76.4443Q753.702 79.8391 757.657 84.0908L750.373 92.4294Q747.077 89.0347 742.726 86.9253Q738.376 84.8159 731.949 84.8159Q723.577 84.8159 717.315 88.9358Q711.053 93.0557 707.625 100.636Q704.197 108.217 704.197 118.665Q704.197 129.245 707.46 136.958Q710.723 144.637 716.985 148.79Q723.28 152.91 732.443 152.91Q736.695 152.91 740.518 151.723Q744.341 150.504 746.681 148.394L746.681 127.366L729.015 127.366L729.015 116.226L758.876 116.226L758.876 154.327Q754.559 158.776 747.341 161.743Q740.155 164.709 731.125 164.709ZM805.009 164.709Q795.979 164.709 788.826 160.622Q781.707 156.535 777.521 148.822Q773.369 141.077 773.369 130.201Q773.369 119.192 777.851 111.447Q782.333 103.701 789.749 99.6145Q797.198 95.5276 805.767 95.5276Q812.194 95.5276 816.907 97.6699Q821.654 99.7793 825.081 103.075L818.621 111.414Q816.314 109.173 813.282 107.854Q810.25 106.536 806.427 106.536Q800.856 106.536 796.506 109.502Q792.188 112.468 789.65 117.775Q787.113 123.048 787.113 130.201Q787.113 137.254 789.519 142.527Q791.958 147.801 796.242 150.766Q800.527 153.701 806.196 153.701Q810.415 153.701 814.073 152.118Q817.764 150.504 820.566 148.032L826.169 156.239Q822.016 160.062 816.611 162.402Q811.239 164.709 805.009 164.709ZM859.361 164.709Q848.847 164.709 844.002 157.985Q839.157 151.262 839.157 138.736L839.157 97.1426L852.505 97.1426L852.505 136.99Q852.505 145.691 855.175 149.449Q857.845 153.173 863.777 153.173Q868.457 153.173 872.083 150.799Q875.708 148.394 879.927 143.055L879.927 97.1426L893.276 97.1426L893.276 163.094L882.3 163.094L881.246 153.107L880.85 153.107Q876.434 158.348 871.259 161.545Q866.117 164.709 859.361 164.709ZM944.784 164.709Q940.236 164.709 935.456 162.501Q930.71 160.26 926.393 156.206L925.964 156.206L924.778 163.094L914.198 163.094L914.198 67.3147L927.546 67.3147L927.546 92.792L927.151 104.196Q931.501 100.405 936.61 97.9665Q941.719 95.4946 947.025 95.4946Q955.397 95.4946 961.23 99.6475Q967.064 103.8 970.096 111.315Q973.129 118.83 973.129 129.047Q973.129 140.286 969.108 148.294Q965.087 156.271 958.627 160.49Q952.2 164.709 944.784 164.709ZM942.147 153.569Q947.091 153.569 950.98 150.766Q954.869 147.932 957.111 142.495Q959.352 137.023 959.352 129.212Q959.352 122.29 957.704 117.248Q956.089 112.172 952.595 109.403Q949.134 106.635 943.531 106.635Q939.708 106.635 935.753 108.645Q931.798 110.656 927.546 114.809L927.546 147.438Q931.435 150.766 935.292 152.185Q939.181 153.569 942.147 153.569ZM1017.08 164.709Q1007.98 164.709 1000.64 160.622Q993.318 156.502 989.066 148.79Q984.815 141.044 984.815 130.102Q984.815 119.357 989.165 111.612Q993.549 103.866 1000.44 99.7134Q1007.33 95.5276 1015.04 95.5276Q1023.77 95.5276 1029.7 99.4827Q1035.67 103.405 1038.7 110.392Q1041.73 117.379 1041.73 126.64Q1041.73 128.585 1041.57 130.432Q1041.41 132.277 1041.01 134.023L994.637 134.023L994.637 123.675L1029.8 123.675Q1029.8 115.336 1026.11 110.788Q1022.45 106.206 1015.24 106.206Q1011.12 106.206 1007.16 108.48Q1003.24 110.722 1000.67 115.929Q998.097 121.137 998.097 130.036Q998.097 138.111 1000.9 143.417Q1003.73 148.691 1008.45 151.327Q1013.16 153.931 1018.66 153.931Q1023.21 153.931 1027.17 152.678Q1031.12 151.394 1034.52 149.185L1039.26 157.854Q1034.85 160.919 1029.21 162.829Q1023.61 164.709 1017.08 164.709Z"/>
  <path transform="scale(0.999696 1)" d="M377.892 224.367L377.892 228.195L328.892 228.195L328.892 224.367L377.892 224.367ZM395.992 208.456L401.136 208.456L413.254 238.041L413.673 238.041L425.779 208.456L430.923 208.456L430.923 244.094L426.892 244.094L426.892 217.022L426.545 217.022L415.407 244.094L411.508 244.094L400.37 217.022L400.023 217.022L400.023 244.094L395.992 244.094L395.992 208.456ZM449.863 244.656Q446.238 244.656 443.51 242.934Q440.795 241.211 439.263 238.113Q437.744 235.014 437.744 230.875Q437.744 226.688 439.263 223.578Q440.795 220.467 443.51 218.745Q446.238 217.022 449.863 217.022Q453.475 217.022 456.203 218.745Q458.93 220.467 460.45 223.578Q461.969 226.688 461.969 230.875Q461.969 235.014 460.45 238.113Q458.93 241.211 456.203 242.934Q453.475 244.656 449.863 244.656ZM449.863 240.96Q452.614 240.96 454.385 239.56Q456.155 238.148 457.004 235.852Q457.866 233.555 457.866 230.875Q457.866 228.195 457.004 225.886Q456.155 223.566 454.385 222.142Q452.614 220.706 449.863 220.706Q447.111 220.706 445.329 222.142Q443.558 223.566 442.709 225.886Q441.859 228.195 441.859 230.875Q441.859 233.555 442.709 235.852Q443.558 238.148 445.329 239.56Q447.111 240.96 449.863 240.96ZM468.795 244.094L468.795 208.456L472.899 208.456L472.899 221.616L473.246 221.616Q473.7 220.922 474.502 219.833Q475.315 218.745 476.834 217.883Q478.366 217.022 480.974 217.022Q484.347 217.022 486.919 218.709Q489.503 220.395 490.939 223.494Q492.386 226.592 492.386 230.803Q492.386 235.05 490.939 238.16Q489.503 241.259 486.943 242.957Q484.383 244.656 481.045 244.656Q478.461 244.656 476.918 243.795Q475.375 242.934 474.538 241.833Q473.7 240.72 473.246 239.991L472.755 239.991L472.755 244.094L468.795 244.094ZM472.827 230.731Q472.827 233.758 473.712 236.067Q474.609 238.364 476.308 239.668Q478.019 240.96 480.483 240.96Q483.055 240.96 484.79 239.596Q486.524 238.232 487.398 235.911Q488.283 233.579 488.283 230.731Q488.283 227.908 487.422 225.647Q486.56 223.374 484.826 222.046Q483.091 220.706 480.483 220.706Q477.983 220.706 476.272 221.975Q474.573 223.231 473.7 225.492Q472.827 227.741 472.827 230.731ZM498.649 244.094L498.649 217.369L502.752 217.369L502.752 244.094L498.649 244.094ZM500.743 212.907Q499.534 212.907 498.673 212.093Q497.812 211.28 497.812 210.131Q497.812 208.983 498.673 208.169Q499.534 207.344 500.743 207.344Q501.939 207.344 502.8 208.169Q503.662 208.983 503.662 210.131Q503.662 211.28 502.8 212.093Q501.939 212.907 500.743 212.907ZM514.376 208.456L514.376 244.094L510.273 244.094L510.273 208.456L514.376 208.456ZM533.105 244.656Q529.241 244.656 526.442 242.946Q523.655 241.223 522.147 238.136Q520.64 235.05 520.64 230.935Q520.64 226.831 522.147 223.697Q523.655 220.551 526.358 218.792Q529.062 217.022 532.687 217.022Q534.78 217.022 536.814 217.716Q538.848 218.41 540.51 219.965Q542.185 221.52 543.178 224.08Q544.171 226.64 544.171 230.384L544.171 232.119L523.571 232.119L523.571 228.578L539.996 228.578Q539.996 226.305 539.099 224.535Q538.202 222.764 536.551 221.735Q534.912 220.706 532.687 220.706Q530.234 220.706 528.452 221.915Q526.669 223.123 525.712 225.061Q524.755 226.987 524.755 229.2L524.755 231.569Q524.755 234.595 525.808 236.689Q526.861 238.783 528.739 239.871Q530.617 240.96 533.105 240.96Q534.72 240.96 536.036 240.505Q537.352 240.039 538.309 239.105Q539.266 238.172 539.781 236.785L543.752 237.897Q543.13 239.919 541.647 241.438Q540.164 242.957 537.986 243.807Q535.821 244.656 533.105 244.656ZM593.033 208.456L593.033 244.094L588.858 244.094L569.442 216.113L569.083 216.113L569.083 244.094L564.777 244.094L564.777 208.456L568.952 208.456L588.439 236.509L588.786 236.509L588.786 208.456L593.033 208.456ZM612.313 244.656Q608.449 244.656 605.649 242.946Q602.862 241.223 601.355 238.136Q599.847 235.05 599.847 230.935Q599.847 226.831 601.355 223.697Q602.862 220.551 605.565 218.792Q608.269 217.022 611.894 217.022Q613.987 217.022 616.021 217.716Q618.055 218.41 619.718 219.965Q621.392 221.52 622.385 224.08Q623.378 226.64 623.378 230.384L623.378 232.119L602.778 232.119L602.778 228.578L619.203 228.578Q619.203 226.305 618.306 224.535Q617.409 222.764 615.758 221.735Q614.119 220.706 611.894 220.706Q609.441 220.706 607.659 221.915Q605.876 223.123 604.919 225.061Q603.962 226.987 603.962 229.2L603.962 231.569Q603.962 234.595 605.015 236.689Q606.068 238.783 607.946 239.871Q609.824 240.96 612.313 240.96Q613.928 240.96 615.243 240.505Q616.559 240.039 617.516 239.105Q618.473 238.172 618.988 236.785L622.96 237.897Q622.337 239.919 620.854 241.438Q619.371 242.957 617.193 243.807Q615.028 244.656 612.313 244.656ZM641.268 217.369L641.268 220.85L627.415 220.85L627.415 217.369L641.268 217.369ZM631.447 210.969L635.562 210.969L635.562 236.438Q635.562 238.172 636.076 239.034Q636.591 239.895 637.392 240.182Q638.206 240.469 639.103 240.469Q639.785 240.469 640.215 240.397Q640.658 240.314 640.921 240.266L641.759 243.95Q641.34 244.106 640.586 244.273Q639.844 244.441 638.696 244.441Q636.949 244.441 635.287 243.699Q633.624 242.946 632.535 241.414Q631.447 239.883 631.447 237.55L631.447 210.969ZM653.511 244.094L645.377 217.369L649.683 217.369L655.461 237.825L655.749 237.825L661.455 217.369L665.833 217.369L671.468 237.766L671.755 237.766L677.533 217.369L681.84 217.369L673.705 244.094L669.661 244.094L663.811 223.566L663.405 223.566L657.555 244.094L653.511 244.094ZM697.228 244.656Q693.603 244.656 690.876 242.934Q688.16 241.211 686.629 238.113Q685.11 235.014 685.11 230.875Q685.11 226.688 686.629 223.578Q688.16 220.467 690.876 218.745Q693.603 217.022 697.228 217.022Q700.841 217.022 703.568 218.745Q706.296 220.467 707.815 223.578Q709.335 226.688 709.335 230.875Q709.335 235.014 707.815 238.113Q706.296 241.211 703.568 242.934Q700.841 244.656 697.228 244.656ZM697.228 240.96Q699.98 240.96 701.75 239.56Q703.521 238.148 704.37 235.852Q705.231 233.555 705.231 230.875Q705.231 228.195 704.37 225.886Q703.521 223.566 701.75 222.142Q699.98 220.706 697.228 220.706Q694.477 220.706 692.694 222.142Q690.924 223.566 690.074 225.886Q689.225 228.195 689.225 230.875Q689.225 233.555 690.074 235.852Q690.924 238.148 692.694 239.56Q694.477 240.96 697.228 240.96ZM715.599 244.094L715.599 217.369L719.57 217.369L719.57 221.4L719.845 221.4Q720.575 219.415 722.489 218.182Q724.403 216.95 726.808 216.95Q727.262 216.95 727.932 216.974Q728.614 216.986 728.961 217.022L728.961 221.197Q728.758 221.137 728.016 221.029Q727.274 220.922 726.461 220.922Q724.511 220.922 722.98 221.735Q721.46 222.537 720.575 223.96Q719.702 225.372 719.702 227.178L719.702 244.094L715.599 244.094ZM737.662 234.344L737.591 229.272L738.428 229.272L750.128 217.369L755.2 217.369L742.747 229.966L742.4 229.966L737.662 234.344ZM733.834 244.094L733.834 208.456L737.938 208.456L737.938 244.094L733.834 244.094ZM750.822 244.094L740.378 230.875L743.297 228.016L756.037 244.094L750.822 244.094ZM779.429 223.35L775.733 224.391Q775.386 223.47 774.716 222.597Q774.046 221.711 772.897 221.137Q771.749 220.563 769.955 220.563Q767.502 220.563 765.875 221.688Q764.248 222.812 764.248 224.535Q764.248 226.066 765.361 226.951Q766.485 227.836 768.842 228.435L772.814 229.404Q776.403 230.277 778.149 232.059Q779.908 233.842 779.908 236.641Q779.908 238.938 778.592 240.756Q777.288 242.563 774.931 243.615Q772.586 244.656 769.476 244.656Q765.385 244.656 762.705 242.886Q760.025 241.103 759.308 237.694L763.207 236.713Q763.77 238.878 765.325 239.955Q766.88 241.031 769.404 241.031Q772.275 241.031 773.974 239.811Q775.673 238.579 775.673 236.856Q775.673 235.469 774.692 234.524Q773.723 233.567 771.701 233.1L767.251 232.047Q763.578 231.186 761.856 229.356Q760.145 227.513 760.145 224.75Q760.145 222.477 761.425 220.742Q762.705 219.008 764.918 218.015Q767.143 217.022 769.955 217.022Q773.926 217.022 776.199 218.769Q778.472 220.503 779.429 223.35ZM799.887 244.094L799.887 217.369L803.99 217.369L803.99 244.094L799.887 244.094ZM801.98 212.907Q800.772 212.907 799.911 212.093Q799.049 211.28 799.049 210.131Q799.049 208.983 799.911 208.169Q800.772 207.344 801.98 207.344Q803.176 207.344 804.038 208.169Q804.899 208.983 804.899 210.131Q804.899 211.28 804.038 212.093Q803.176 212.907 801.98 212.907ZM815.613 228.016L815.613 244.094L811.51 244.094L811.51 217.369L815.482 217.369L815.482 221.544L815.829 221.544Q816.762 219.51 818.676 218.266Q820.59 217.022 823.629 217.022Q826.332 217.022 828.366 218.123Q830.412 219.223 831.536 221.46Q832.673 223.697 832.673 227.107L832.673 244.094L828.569 244.094L828.569 227.394Q828.569 224.236 826.93 222.477Q825.291 220.706 822.444 220.706Q820.47 220.706 818.927 221.568Q817.396 222.417 816.499 224.056Q815.613 225.683 815.613 228.016ZM861.839 244.716Q859.291 244.716 857.221 243.759Q855.152 242.79 853.931 240.96Q852.711 239.117 852.711 236.509Q852.711 234.213 853.62 232.777Q854.53 231.342 856.037 230.528Q857.556 229.703 859.387 229.296Q861.229 228.889 863.083 228.638Q865.524 228.327 867.043 228.171Q868.574 228.004 869.268 227.609Q869.974 227.202 869.974 226.209L869.974 226.066Q869.974 223.494 868.574 222.07Q867.174 220.635 864.339 220.635Q861.396 220.635 859.722 221.927Q858.059 223.219 857.377 224.678L853.477 223.279Q854.53 220.85 856.276 219.486Q858.023 218.111 860.104 217.572Q862.186 217.022 864.196 217.022Q865.488 217.022 867.162 217.333Q868.849 217.632 870.416 218.577Q871.995 219.51 873.036 221.412Q874.089 223.302 874.089 226.485L874.089 244.094L869.974 244.094L869.974 240.469L869.77 240.469Q869.352 241.342 868.371 242.335Q867.402 243.328 865.787 244.022Q864.172 244.716 861.839 244.716ZM862.461 241.031Q864.901 241.031 866.576 240.074Q868.251 239.117 869.112 237.61Q869.974 236.091 869.974 234.416L869.974 230.66Q869.723 230.971 868.837 231.222Q867.964 231.473 866.816 231.665Q865.679 231.844 864.602 231.976Q863.538 232.107 862.88 232.191Q861.277 232.406 859.889 232.873Q858.513 233.327 857.664 234.237Q856.827 235.146 856.827 236.713Q856.827 238.854 858.418 239.943Q860.009 241.031 862.461 241.031ZM895.943 244.094L895.943 208.456L908.396 208.456Q912.117 208.456 914.533 209.737Q916.962 211.017 918.146 213.17Q919.33 215.311 919.33 217.919Q919.33 220.216 918.517 221.723Q917.703 223.219 916.387 224.092Q915.083 224.953 913.552 225.372L913.552 225.719Q915.179 225.827 916.83 226.867Q918.493 227.908 919.605 229.858Q920.718 231.808 920.718 234.631Q920.718 237.311 919.498 239.452Q918.278 241.594 915.646 242.85Q913.026 244.094 908.815 244.094L895.943 244.094ZM900.249 240.266L908.815 240.266Q913.05 240.266 914.832 238.627Q916.615 236.976 916.615 234.631Q916.615 232.813 915.694 231.282Q914.772 229.738 913.062 228.805Q911.351 227.872 909.03 227.872L900.249 227.872L900.249 240.266ZM900.249 224.116L908.265 224.116Q910.203 224.116 911.782 223.35Q913.361 222.585 914.282 221.197Q915.215 219.797 915.215 217.919Q915.215 215.574 913.576 213.936Q911.949 212.285 908.396 212.285L900.249 212.285L900.249 224.116ZM938.121 244.656Q934.496 244.656 931.768 242.934Q929.053 241.211 927.522 238.113Q926.002 235.014 926.002 230.875Q926.002 226.688 927.522 223.578Q929.053 220.467 931.768 218.745Q934.496 217.022 938.121 217.022Q941.733 217.022 944.461 218.745Q947.189 220.467 948.708 223.578Q950.227 226.688 950.227 230.875Q950.227 235.014 948.708 238.113Q947.189 241.211 944.461 242.934Q941.733 244.656 938.121 244.656ZM938.121 240.96Q940.872 240.96 942.643 239.56Q944.413 238.148 945.262 235.852Q946.124 233.555 946.124 230.875Q946.124 228.195 945.262 225.886Q944.413 223.566 942.643 222.142Q940.872 220.706 938.121 220.706Q935.369 220.706 933.587 222.142Q931.816 223.566 930.967 225.886Q930.117 228.195 930.117 230.875Q930.117 233.555 930.967 235.852Q931.816 238.148 933.587 239.56Q935.369 240.96 938.121 240.96ZM958.44 217.369L964.84 228.291L971.252 217.369L975.978 217.369L967.352 230.731L975.978 244.094L971.252 244.094L964.84 233.722L958.44 244.094L953.715 244.094L962.196 230.731L953.715 217.369L958.44 217.369ZM1040.85 226.903L1040.85 230.731L991.851 230.731L991.851 226.903L1040.85 226.903Z"/>
</svg>
